<svg xmlns="http://www.w3.org/2000/svg" viewBox="0 0 1090.24 701.07"><defs><style>.cls-1{fill:#e6bb2d;}</style></defs><title>chicoo</title><g id="Calque_2" data-name="Calque 2"><g id="Layer_1" data-name="Layer 1"><path class="cls-1" d="M465,419.87c1.47.49,2.21,1.66,2.21,3.5a16.94,16.94,0,0,1-1.29,6.07q-1.29,3.31-2,5.52a711.33,711.33,0,0,1-55,104.31A390.48,390.48,0,0,1,332.51,627a414.85,414.85,0,0,1-49.67,35.32,304.62,304.62,0,0,1-56.29,26.49,208.27,208.27,0,0,1-34.77,9.75A191.26,191.26,0,0,1,155.54,701a217.59,217.59,0,0,1-23.55-.55,129.14,129.14,0,0,1-23.92-4.23q-55.56-15.82-82.78-67.7A195.11,195.11,0,0,1,11,591.87a283.25,283.25,0,0,1-7.73-37.34,401.77,401.77,0,0,1-.37-98.6A697.22,697.22,0,0,1,30.08,326.42a738.52,738.52,0,0,1,49.3-119.57A542.89,542.89,0,0,1,159.22,90.21,340.42,340.42,0,0,1,233.91,27.3,183.38,183.38,0,0,1,303.45,1.18a80.89,80.89,0,0,1,34.22,1.47q26.85,6.62,34.22,33.11,5.15,21.71,0,53.53a447.66,447.66,0,0,1-16.37,66.41,590.28,590.28,0,0,1-24.83,64.2q-13.62,29.62-25,47.28a13,13,0,0,1-8.09,5.33,24.63,24.63,0,0,1-10.67-.55,8.13,8.13,0,0,1-4.78-3.31q-1.85-2.57-.74-4.78a35,35,0,0,1,2.94-7q.73-1.84,1.84-4,4-9.93,9.57-22.08,12.14-26.85,25.2-58.87a486.81,486.81,0,0,0,21.16-63.83q8.09-31.82,5.89-57.58Q343.91,7.07,303.82,18.1A158.73,158.73,0,0,0,270.89,31a263.51,263.51,0,0,0-29.25,18,350.42,350.42,0,0,0-51,44.89,447.25,447.25,0,0,0-42.13,52.61Q54.36,283.74,32.66,457.4A410.76,410.76,0,0,0,33,560a188.58,188.58,0,0,0,17.66,59.24q14,28.7,33.3,43.78t40.1,19.87q20.78,4.78,39.18,2.58A194.16,194.16,0,0,0,224,668.59q56.65-25.76,92.53-54.82t60.16-61.08a802.83,802.83,0,0,0,45.62-67q8.46-14,14.72-26.86A369.28,369.28,0,0,1,456.13,425Q460.18,419.14,465,419.87Z"/><path class="cls-1" d="M609,444.15q14.16-15.82,14.9-12.14t-6.07,17.11q-6.81,13.43-21.16,23-10.68,6.62-18.21,8.83a62.46,62.46,0,0,1-13.8,2.58q-12.14.74-18.58-7t-9-19.87a204.21,204.21,0,0,1-3.68-25q-1.1-8.09-2.21-14.72-1.48-10.3-5.89-11.41t-13.61,13.25a204.07,204.07,0,0,0-16.74,34q-7.17,18.58-12.69,36.24a13.68,13.68,0,0,0-.74,1.84,43.21,43.21,0,0,0-1.84,5.15,142.19,142.19,0,0,1-5.15,14.35,13.24,13.24,0,0,1-8.65,7.73,19,19,0,0,1-12.69-.74,9.91,9.91,0,0,1-5.89-6.25,31.91,31.91,0,0,1-1.47-13.61v-1.1q1.47-29.06.37-96.76-.74-54.08-.74-116.26T448.59,166q3.12-55.19,10.85-88.3a58.78,58.78,0,0,1,11-21.71q7.73-9.56,17.11-10.49T505.07,58.2a79.19,79.19,0,0,1,7,25q3.67,39-6.62,120.13t-21.52,142q-11.23,60.9-11.22,101.73,3.67-6.25,7.36-13.25,5.15-10.29,11.59-20.6a70.26,70.26,0,0,1,15.27-17.48,43.08,43.08,0,0,1,21.34-9,38,38,0,0,1,17.29,1.1q8.83,2.58,11.77,12.14a133.27,133.27,0,0,1,2.58,36.06q0,20.24,7,25.57t17.48,1.84Q594.84,460,609,444.15ZM484.1,98.31q-1.84,21-4.23,69.9t-4,98.05q-1.66,49.12-1.66,81.86,4-29.43,9.75-76.71T494,174.1q4.42-50,4.42-75.06-.37-13.25-1.84-19.68t-5-4.6q-3.5,1.84-5.33,9.38A77.74,77.74,0,0,0,484.1,98.31Z"/><path class="cls-1" d="M701.54,457.4q-5.16,10.68-17.66,23.73t-28.33,16.56q-15.82,3.5-30.17-10.85a39.28,39.28,0,0,1-8.09-14.53,41.8,41.8,0,0,1-1.84-16.37v-5.52q0-8.46.74-19.68a96.61,96.61,0,0,1,3.31-20.24q2.57-9,8.09-10.85,15.81-4,17.29,11,0,4.79-.37,9.57a33.59,33.59,0,0,0-.37,4.78q-.37,7-.74,14,0,5.52-.37,11-.37,24.28,10.85,28.88t25.57-9.75q14.35-14.35,18.76-23.91t6.44-4Q706.68,446.73,701.54,457.4Zm-58.87-92.35a11.18,11.18,0,0,1-5.33,2.39,8.44,8.44,0,0,1-5.33-.55,6.69,6.69,0,0,1-2.39-3.86,25.58,25.58,0,0,1-.55-5.7,3.26,3.26,0,0,1,.37-1.47A25.71,25.71,0,0,1,630.9,350q3.31-8.09,14-7.36a7.93,7.93,0,0,1,5.7,2.94,6,6,0,0,1,.92,5.89A29.91,29.91,0,0,1,642.67,365.05Z"/><path class="cls-1" d="M852,443.78q7-4.42,9.2-2.57T858.27,450a192.7,192.7,0,0,1-37.34,33.66q-22.27,15.64-44.33,22.63a89.63,89.63,0,0,1-30.54,5.15,66.71,66.71,0,0,1-22.81-3.31q-25-8.09-28.33-34.22a75.9,75.9,0,0,1,1.84-28.7,67.8,67.8,0,0,1,14.17-25.75A64.06,64.06,0,0,1,735,402.58a64.75,64.75,0,0,1,28.15-4q14.53,1.1,23.73,9.2a5,5,0,0,1,1.47,3.68,14,14,0,0,1-.74,4.42q-2.21,6.62-6.25,6.25a26,26,0,0,1-9.57-3.31,74.54,74.54,0,0,0-8.83-4A17.13,17.13,0,0,0,753,414q-14.35,2.21-23.92,15.45a65,65,0,0,0-10.49,24.65q-2.76,13.62,2,24.28,5.88,11,19.13,12.51T770,487.75a199.84,199.84,0,0,0,33.85-12.69,266.7,266.7,0,0,0,30-16.56Q846.86,450,852,443.78Z"/><path class="cls-1" d="M1079,441.21q2.94-1.47,3.68.74T1079,450q-9.57,12.14-19.5,18.4T1034.87,474a12.09,12.09,0,0,0-5.33.37,8.34,8.34,0,0,0-3.86,3.68q-1.85,2.58-3.68,4.78h-.37a40.33,40.33,0,0,1-21.16,12.88,34.89,34.89,0,0,1-23-1.84Q966.8,489,962,475.06a48.08,48.08,0,0,1-.74-25A87.86,87.86,0,0,1,965,438.63a104.19,104.19,0,0,1-27.59,10.3,62.23,62.23,0,0,1-13.43,32q-11.23,14-25.94,20.42t-28,1.84q-13.25-4.6-19.87-23.73a57,57,0,0,1-.74-28.7q4.42-19.13,15.45-32.56T891,400a43.15,43.15,0,0,1,26.67,1.1q13.06,4.78,18.21,20.24a65.12,65.12,0,0,1,1.84,15.08q22.81-4.42,36.06-13.61a36.55,36.55,0,0,1,16-12.51,62.17,62.17,0,0,1,20.79-4q20.23-1.1,25.39,18.4a63.84,63.84,0,0,1,1.47,23.55,39.21,39.21,0,0,1-1.1,5.15q-.37,2.21-.74,4-.37,6.26,5.15,5.52a54.67,54.67,0,0,0,16.56-5.52,81.12,81.12,0,0,0,14.35-9.57Zm-189.85,49.3q9.19-5.15,15.45-15.82a69.27,69.27,0,0,0,8.46-23.18,13.91,13.91,0,0,0-3.31-.37,68.54,68.54,0,0,1-18.4-2.94,24.66,24.66,0,0,1-13.25-10.3,62.08,62.08,0,0,0-6.62,25.57q-.74,14.17,3.5,23T889.18,490.51ZM894.7,425a10.13,10.13,0,0,0,5.52,9.38,34.19,34.19,0,0,0,14,3.86q-.37-10.67-5.15-18a7,7,0,0,0-5.15-2.94,8.42,8.42,0,0,0-6.07,1.66A8,8,0,0,0,894.7,425Zm101.18,59.6q10.3-4.78,14.35-16.56a52,52,0,0,1-22.81-31.27,53.53,53.53,0,0,0-6.62,22.44q-1.1,12.88,2.58,21.16T995.87,484.62Zm19.5-31.64a18.49,18.49,0,0,0,3.31-9.93,47.79,47.79,0,0,0-.74-11.77,31.27,31.27,0,0,0-2.94-9.2q-1.85-3.31-4-1.84-5.89,5.52-4,16.37T1015.37,453Z"/><path class="cls-1" d="M452.92,536.34l-3.12,4a19.12,19.12,0,0,0-13.46-5.72c-10.27,0-18.53,7.93-18.53,17.94a18.19,18.19,0,0,0,18.53,17.94A19.84,19.84,0,0,0,449.8,565l3.19,3.58a25.13,25.13,0,0,1-16.9,7,23.14,23.14,0,0,1-23.53-23.08c0-12.74,10.53-22.82,23.73-22.82A24.6,24.6,0,0,1,452.92,536.34Z"/><path class="cls-1" d="M501.48,575.34v-20H474v20h-5.2v-45.5H474v20.54h27.43V529.84h5.2v45.5Z"/><path class="cls-1" d="M527,575.34v-45.5h5.2v45.5Z"/><path class="cls-1" d="M588.51,536.34l-3.12,4a19.12,19.12,0,0,0-13.46-5.72c-10.27,0-18.53,7.93-18.53,17.94a18.19,18.19,0,0,0,18.53,17.94A19.84,19.84,0,0,0,585.39,565l3.19,3.58a25.14,25.14,0,0,1-16.9,7,23.14,23.14,0,0,1-23.53-23.08c0-12.74,10.53-22.82,23.73-22.82A24.6,24.6,0,0,1,588.51,536.34Z"/><path class="cls-1" d="M647.14,529.84c13.26,0,23.4,9.82,23.4,22.75s-10.21,22.75-23.6,22.75h-18.2v-45.5Zm-13.2,40.56h13.26c10.14,0,18.07-7.6,18.07-17.75s-8.06-17.81-18.27-17.81H633.95Z"/><path class="cls-1" d="M691.73,534.84v15h22.95v5H691.73v15.6h26.52v4.94H686.53v-45.5h30.88v5Z"/><path class="cls-1" d="M752.44,529.84c11.25,0,17.75,5.59,17.75,15.28,0,10.08-6.5,15.86-17.75,15.86h-11.9v14.37h-5.2v-45.5ZM740.54,556h11.7c8.19,0,12.94-3.64,12.94-10.72,0-6.89-4.75-10.4-12.94-10.4h-11.7Z"/><path class="cls-1" d="M822.51,556.62c0,11.83-7.15,19-19,19s-19.18-7.15-19.18-19V529.84h5.2v26.78c0,8.84,5.33,14,14,14s13.85-5.14,13.85-14V529.84h5.2Z"/><path class="cls-1" d="M841.75,575.34v-45.5h5.2v45.5Z"/><path class="cls-1" d="M895.18,533.87,893,538.74a23.5,23.5,0,0,0-12.54-3.84c-5.85,0-9.69,2.21-9.69,6,0,11.7,25.61,5.59,25.55,22.1,0,7.61-6.7,12.48-16.45,12.48a26,26,0,0,1-17.42-7l2.34-4.68a22.64,22.64,0,0,0,15.15,6.43c6.56,0,10.66-2.66,10.66-7,.06-12-25.55-5.59-25.55-21.91,0-7.15,6.31-11.77,15.73-11.77A26.92,26.92,0,0,1,895.18,533.87Z"/><path class="cls-1" d="M962.65,540.82c0,4.35-3.25,9.62-8.06,14.75l-14,14.82h24.64v4.94H934V571l17-18.53c3.83-3.83,6.24-8.06,6.24-11,0-4.42-3.38-7.09-9.1-7.09-4.16,0-8.78,2.15-12.42,5.66l-2.27-4.16a23.45,23.45,0,0,1,15.34-6.31C957.19,529.64,962.65,534,962.65,540.82Z"/><path class="cls-1" d="M1016.14,552.59c0,14.69-6.7,22.88-18.79,22.88s-18.79-8.19-18.79-22.88,6.69-22.88,18.79-22.88S1016.14,537.9,1016.14,552.59Zm-32.31,0c0,12.29,4.68,18.46,13.52,18.46s13.52-6.17,13.52-18.46-4.68-18.46-13.52-18.46S983.84,540.24,983.84,552.59Z"/><path class="cls-1" d="M1036.42,575.34V534.78h-9.23v-4.94h14.37v45.5Z"/><path class="cls-1" d="M1066.9,534.84v12.8a53.94,53.94,0,0,1,7.67-.65c9.56,0,15.67,5.66,15.67,13.46,0,9.1-6.31,15-16.06,15a28.81,28.81,0,0,1-15.34-4.94l2.15-4.42a22.07,22.07,0,0,0,12.68,4.55c6.82,0,11-3.77,11-9.88,0-5.39-4.23-8.78-10.92-8.78a74,74,0,0,0-11.7,1.11V529.84h26.39v5Z"/></g></g></svg>