<?xml version="1.0" encoding="utf-8"?>
<!-- Generator: Adobe Illustrator 16.0.0, SVG Export Plug-In . SVG Version: 6.00 Build 0)  -->
<!DOCTYPE svg PUBLIC "-//W3C//DTD SVG 1.0//EN" "http://www.w3.org/TR/2001/REC-SVG-20010904/DTD/svg10.dtd">
<svg version="1.0" id="Layer_1" xmlns="http://www.w3.org/2000/svg" xmlns:xlink="http://www.w3.org/1999/xlink" x="0px" y="0px"
	 width="800px" height="800px" viewBox="0 0 800 800" enable-background="new 0 0 800 800" xml:space="preserve">
<g>
	<path fill="#FF2D20" d="M767.228,192.77c0.275,1.012,0.421,2.046,0.421,3.095v162.479c0,4.246-2.285,8.164-5.958,10.276
		l-136.369,78.517v155.618c0,4.236-2.256,8.141-5.93,10.267L334.737,776.897c-0.652,0.375-1.36,0.606-2.076,0.866
		c-0.262,0.086-0.514,0.245-0.796,0.318c-1.987,0.521-4.084,0.521-6.073,0c-0.325-0.087-0.621-0.26-0.933-0.376
		c-0.65-0.245-1.33-0.447-1.953-0.809L38.302,613.021c-3.68-2.112-5.95-6.017-5.95-10.267V115.323c0-1.063,0.145-2.105,0.412-3.11
		c0.094-0.339,0.296-0.651,0.42-0.99c0.216-0.623,0.426-1.257,0.751-1.837c0.225-0.382,0.55-0.701,0.817-1.055
		c0.34-0.471,0.651-0.962,1.049-1.374c0.339-0.341,0.788-0.593,1.171-0.889c0.427-0.354,0.816-0.739,1.302-1.021h0.014
		l142.314-81.937c3.666-2.111,8.177-2.111,11.843,0l142.307,81.937h0.029c0.476,0.298,0.873,0.667,1.308,1.005
		c0.384,0.297,0.811,0.564,1.15,0.889c0.419,0.427,0.716,0.918,1.069,1.389c0.254,0.354,0.594,0.673,0.796,1.055
		c0.339,0.593,0.534,1.214,0.773,1.837c0.116,0.339,0.325,0.65,0.413,1.005c0.273,1.012,0.412,2.053,0.419,3.095v304.438
		l118.582-68.271V195.851c0-1.035,0.145-2.09,0.418-3.081c0.103-0.355,0.291-0.664,0.406-1.005c0.23-0.621,0.448-1.257,0.781-1.837
		c0.217-0.382,0.55-0.694,0.795-1.055c0.361-0.469,0.651-0.962,1.057-1.374c0.348-0.339,0.779-0.594,1.157-0.89
		c0.447-0.354,0.839-0.737,1.301-1.019h0.029l142.313-81.938c3.672-2.112,8.184-2.112,11.843,0l142.313,81.938
		c0.507,0.295,0.882,0.664,1.33,1.005c0.377,0.296,0.796,0.564,1.144,0.889c0.418,0.426,0.707,0.918,1.068,1.388
		c0.262,0.361,0.594,0.673,0.796,1.055c0.332,0.58,0.535,1.216,0.767,1.837C766.955,192.106,767.142,192.415,767.228,192.77z
		 M743.917,351.49V216.378l-49.79,28.663l-68.806,39.615v135.105l118.609-68.271H743.917z M601.604,595.899V460.701l-67.663,38.654
		L340.687,609.638v136.486L601.604,595.899z M56.075,135.83v460.07l260.896,150.194V609.652l-136.298-77.137l-0.044-0.027
		l-0.063-0.03c-0.457-0.274-0.839-0.65-1.273-0.969c-0.368-0.304-0.796-0.55-1.121-0.868l-0.029-0.043
		c-0.389-0.361-0.657-0.824-0.982-1.244c-0.296-0.39-0.65-0.737-0.89-1.156l-0.014-0.045c-0.261-0.433-0.428-0.982-0.623-1.474
		c-0.188-0.448-0.441-0.868-0.557-1.33v-0.03c-0.152-0.55-0.18-1.157-0.239-1.734c-0.057-0.435-0.18-0.883-0.18-1.33v-0.029v-318.09
		l-68.784-39.631l-49.798-28.64V135.83z M186.537,47.073l-118.575,68.25l118.546,68.249l118.554-68.264L186.508,47.073H186.537z
		 M248.199,473.021l68.785-39.608V135.83l-49.804,28.675l-68.799,39.61v297.584L248.199,473.021z M613.477,127.614l-118.568,68.25
		l118.568,68.25l118.539-68.264L613.477,127.614z M601.604,284.656l-68.791-39.615l-49.791-28.663V351.49l68.778,39.594
		l49.804,28.677V284.656z M328.813,589.131l173.905-99.275l86.911-49.618L471.163,372.04l-136.398,78.525l-124.315,71.583
		L328.813,589.131z"/>
</g>
</svg>
